<svg width="42" height="40" viewBox="0 0 42 40" fill="none" xmlns="http://www.w3.org/2000/svg">
<path d="M11.1642 10.8168C11.4318 11.1047 11.8648 11.1047 12.1319 10.8168C12.3995 10.5295 12.3995 10.0636 12.1319 9.77573L5.32451 2.45136C5.05742 2.16401 4.62391 2.1635 4.35682 2.45136C4.08972 2.73922 4.08972 3.20511 4.35682 3.49247L11.1642 10.8168Z" fill="black" fill-opacity="0.7"/>
<path d="M9.08622 13.0531C9.35332 13.3404 9.78682 13.3409 10.0539 13.0531C10.321 12.7657 10.321 12.2993 10.0539 12.012L3.24649 4.68708C2.97893 4.39972 2.54589 4.39922 2.2788 4.68708C2.01123 4.97444 2.01123 5.44083 2.2788 5.72819L9.08622 13.0531Z" fill="black" fill-opacity="0.7"/>
<path d="M9.50856 17.9797C10.3784 18.9155 11.1293 19.0148 12.1846 18.3343L13.3038 17.6116L18.0701 23.0017L6.18968 35.1595C5.91233 35.4429 5.75758 35.824 5.75245 36.2317C5.74732 36.641 5.89369 37.0256 6.16405 37.317L8.24207 39.5537C8.5073 39.8375 8.8597 39.995 9.23214 39.995C9.61251 39.995 9.98215 39.823 10.2465 39.5246L21.463 26.8392L32.6838 39.5306C32.9472 39.828 33.3024 39.995 33.6823 40C34.0725 40 34.4235 39.843 34.6896 39.5567L36.7662 37.322C37.0371 37.0311 37.1839 36.6455 37.1802 36.2373C37.1755 35.829 37.0208 35.4474 36.7434 35.1636L24.8574 22.9992L29.5579 17.6829C30.2413 17.9607 30.9899 18.1006 31.7917 18.1006C34.2039 18.1006 36.7462 16.8534 38.7678 14.6789C40.4329 12.887 41.5287 10.6845 41.8527 8.47738C42.1897 6.18302 41.6607 4.15196 40.3648 2.7573C39.3272 1.64096 37.9087 1.0512 36.2619 1.0512C33.8501 1.0512 31.3064 2.29893 29.2843 4.47543C26.5504 7.41721 25.4485 11.4056 26.4908 14.3835L21.4649 19.5279L16.3691 14.3133L17.0408 13.1087C17.6738 11.9733 17.5815 11.1664 16.7117 10.2306L7.40257 0.215707C7.13547 -0.0716514 6.70197 -0.0721529 6.4344 0.215707C6.16731 0.503566 6.16778 0.969457 6.4344 1.25682L15.744 11.2717C16.1626 11.7231 16.1724 11.8038 15.8671 12.3514L14.9134 14.0621C14.7484 14.3574 14.7969 14.7371 15.0285 14.9743L20.4651 20.5509L19.062 21.9867L13.9182 16.1693C13.6968 15.9191 13.3444 15.8669 13.0698 16.045L11.4803 17.0705C10.9708 17.399 10.8962 17.389 10.4767 16.9381L1.16802 6.92323C0.900922 6.63588 0.467416 6.63538 0.200321 6.92323C-0.0667738 7.21059 -0.0667738 7.67699 0.200321 7.96434L9.50856 17.9797ZM35.7995 36.2794L33.7219 38.5156L34.2058 39.0361L33.6753 38.5146L22.4074 25.7705L23.9042 24.078L35.7995 36.2794ZM27.7792 15.0981C27.995 14.8775 28.0533 14.531 27.9232 14.2426C26.8091 11.7787 27.7675 8.19102 30.2525 5.51704C31.994 3.64294 34.2407 2.5241 36.2624 2.5241C37.5382 2.5241 38.6219 2.96542 39.3976 3.79891C40.376 4.85155 40.768 6.43177 40.5014 8.24769C40.2217 10.1504 39.2633 12.0646 37.8006 13.6383C36.0601 15.5109 33.8137 16.6287 31.7931 16.6287C31.7926 16.6287 31.7926 16.6287 31.7926 16.6287C31.0132 16.6287 30.3061 16.4652 29.6899 16.1428C29.4228 16.0028 29.1002 16.065 28.8946 16.2977L9.25452 38.5106C9.24706 38.5186 9.24007 38.5221 9.23214 38.5221L7.13221 36.2277L27.7792 15.0981Z" fill="black" fill-opacity="0.7"/>
</svg>
